<svg width="12" height="14" viewBox="0 0 12 14" fill="none" xmlns="http://www.w3.org/2000/svg">
<path d="M3.20022 2.11655C3.35692 1.95972 3.6 1.96187 3.7567 2.1187C4.31116 2.67512 4.83147 3.2745 5.31763 3.9233C5.53862 3.61394 5.78973 3.27665 6.06094 3.00167C6.21964 2.84269 6.46473 2.84269 6.62344 3.00381C7.31853 3.71276 7.90714 4.64944 8.32098 5.53884C8.7288 6.41536 9 7.31122 9 7.94283C9 10.6841 6.99509 13 4.5 13C1.97679 13 0 10.682 0 7.94068C0 7.11572 0.357589 6.10815 0.912054 5.11133C1.47254 4.09946 2.26406 3.04463 3.20022 2.11655ZM4.53415 10.9376C5.04241 10.9376 5.49241 10.7872 5.91629 10.4865C6.76205 9.85484 6.98906 8.59162 6.4808 7.59909C6.3904 7.40575 6.15938 7.39286 6.02879 7.55613L5.52254 8.18559C5.38996 8.34886 5.15089 8.34457 5.02634 8.17485C4.69487 7.7237 4.10223 6.91807 3.76473 6.46048C3.63817 6.28861 3.3971 6.28646 3.26853 6.45833C2.58951 7.37137 2.24799 7.94712 2.24799 8.59377C2.25 10.0654 3.26652 10.9376 4.53415 10.9376Z" fill="#E8E8E8"/>
</svg>
