<svg width="20" height="16" viewBox="0 0 20 16" fill="none" xmlns="http://www.w3.org/2000/svg">
<path d="M2.25 3.03807C2.25 2.58403 2.43437 2.14859 2.76256 1.82753C3.09075 1.50648 3.53587 1.32611 4 1.32611C4.46413 1.32611 4.90925 1.50648 5.23744 1.82753C5.56563 2.14859 5.75 2.58403 5.75 3.03807C5.75 3.49211 5.56563 3.92755 5.23744 4.2486C4.90925 4.56966 4.46413 4.75002 4 4.75002C3.53587 4.75002 3.09075 4.56966 2.76256 4.2486C2.43437 3.92755 2.25 3.49211 2.25 3.03807ZM2 7.85906C1.6875 8.20145 1.5 8.65695 1.5 9.1522C1.5 9.64744 1.6875 10.1029 2 10.4453V7.856V7.85906ZM6.5125 6.35193C5.58437 7.15593 5 8.3329 5 9.64133C5 10.6899 5.375 11.6529 6 12.408V13.0652C6 13.6063 5.55312 14.0435 5 14.0435H3C2.44688 14.0435 2 13.6063 2 13.0652V12.2459C0.81875 11.6957 0 10.5187 0 9.1522C0 7.25987 1.56562 5.72828 3.5 5.72828H4.5C5.25 5.72828 5.94375 5.95756 6.5125 6.34887V6.35193ZM14 13.0652V12.408C14.625 11.6529 15 10.6899 15 9.64133C15 8.3329 14.4156 7.15593 13.4875 6.34887C14.0563 5.95756 14.75 5.72828 15.5 5.72828H16.5C18.4344 5.72828 20 7.25987 20 9.1522C20 10.5187 19.1812 11.6957 18 12.2459V13.0652C18 13.6063 17.5531 14.0435 17 14.0435H15C14.4469 14.0435 14 13.6063 14 13.0652ZM14.25 3.03807C14.25 2.58403 14.4344 2.14859 14.7626 1.82753C15.0908 1.50648 15.5359 1.32611 16 1.32611C16.4641 1.32611 16.9092 1.50648 17.2374 1.82753C17.5656 2.14859 17.75 2.58403 17.75 3.03807C17.75 3.49211 17.5656 3.92755 17.2374 4.2486C16.9092 4.56966 16.4641 4.75002 16 4.75002C15.5359 4.75002 15.0908 4.56966 14.7626 4.2486C14.4344 3.92755 14.25 3.49211 14.25 3.03807ZM18 7.85906V10.4484C18.3125 10.1029 18.5 9.6505 18.5 9.15526C18.5 8.66001 18.3125 8.20451 18 7.86212V7.85906ZM10 1.32611C10.5304 1.32611 11.0391 1.53224 11.4142 1.89916C11.7893 2.26608 12 2.76373 12 3.28263C12 3.80153 11.7893 4.29918 11.4142 4.6661C11.0391 5.03302 10.5304 5.23915 10 5.23915C9.46957 5.23915 8.96086 5.03302 8.58579 4.6661C8.21071 4.29918 8 3.80153 8 3.28263C8 2.76373 8.21071 2.26608 8.58579 1.89916C8.96086 1.53224 9.46957 1.32611 10 1.32611ZM7.5 9.64133C7.5 10.1366 7.6875 10.589 8 10.9345V8.34513C7.6875 8.69058 7.5 9.14303 7.5 9.63827V9.64133ZM12 8.34819V10.9375C12.3125 10.5921 12.5 10.1396 12.5 9.64439C12.5 9.14914 12.3125 8.69364 12 8.35125V8.34819ZM14 9.64133C14 11.0078 13.1812 12.1848 12 12.7351V14.0435C12 14.5846 11.5531 15.0218 11 15.0218H9C8.44687 15.0218 8 14.5846 8 14.0435V12.7351C6.81875 12.1848 6 11.0078 6 9.64133C6 7.749 7.56563 6.21742 9.5 6.21742H10.5C12.4344 6.21742 14 7.749 14 9.64133Z" fill="#E8E8E8"/>
</svg>
