<svg width="12" height="11" viewBox="0 0 12 11" fill="none" xmlns="http://www.w3.org/2000/svg">
<path d="M5.61469 1.50176C5.84594 1.33203 6.15427 1.33203 6.38552 1.50176C6.85427 1.83477 7.42719 2.0625 8.0001 2.0625C8.56052 2.0625 9.15427 1.83047 9.6126 1.50176C9.86052 1.31914 10.198 1.33418 10.4293 1.53828C10.7293 1.79394 11.1064 1.98945 11.4834 2.07969C11.8418 2.16562 12.0647 2.53516 11.9814 2.90469C11.898 3.27422 11.5397 3.5041 11.1814 3.41816C10.6709 3.2957 10.2459 3.06367 9.96885 2.88105C9.36469 3.21621 8.6876 3.4375 8.0001 3.4375C7.33552 3.4375 6.7376 3.2248 6.3251 3.03144C6.20427 2.97344 6.09385 2.91758 6.0001 2.86601C5.90635 2.91758 5.79802 2.97559 5.6751 3.03144C5.2626 3.2248 4.66469 3.4375 4.0001 3.4375C3.3126 3.4375 2.63552 3.21621 2.03135 2.8832C1.75219 3.06367 1.32927 3.29785 0.818852 3.42031C0.460519 3.50625 0.102185 3.27637 0.0188521 2.90684C-0.0644812 2.5373 0.158435 2.16777 0.516769 2.08184C0.891769 1.98945 1.27094 1.79394 1.56885 1.53828C1.8001 1.33418 2.1376 1.32129 2.38552 1.50176C2.84802 1.83047 3.43969 2.0625 4.0001 2.0625C4.57302 2.0625 5.14594 1.83477 5.61469 1.50176ZM6.38552 7.68926C6.85427 8.02227 7.42719 8.25 8.0001 8.25C8.56052 8.25 9.15427 8.01797 9.6126 7.68926C9.86052 7.50664 10.198 7.52168 10.4293 7.72578C10.7293 7.98145 11.1064 8.17695 11.4834 8.26719C11.8418 8.35312 12.0647 8.72266 11.9814 9.09219C11.898 9.46172 11.5397 9.6916 11.1814 9.60566C10.6709 9.4832 10.2459 9.25117 9.96885 9.06855C9.36469 9.40371 8.6876 9.625 8.0001 9.625C7.33552 9.625 6.7376 9.4123 6.3251 9.21895C6.20427 9.16094 6.09385 9.10508 6.0001 9.05352C5.90635 9.10508 5.79802 9.16309 5.6751 9.21895C5.2626 9.4123 4.66469 9.625 4.0001 9.625C3.3126 9.625 2.63552 9.40371 2.03135 9.0707C1.75219 9.25117 1.32927 9.48535 0.818852 9.60781C0.460519 9.69375 0.102185 9.46387 0.0188521 9.09434C-0.0644812 8.7248 0.158435 8.35527 0.516769 8.26934C0.893852 8.1791 1.27094 7.98359 1.57094 7.72793C1.80219 7.52598 2.13969 7.51094 2.3876 7.69141C2.84802 8.01797 3.43969 8.25 4.0001 8.25C4.57302 8.25 5.14594 8.02227 5.61469 7.68926C5.84594 7.51953 6.15427 7.51953 6.38552 7.68926ZM6.38552 4.59551C6.85427 4.92851 7.42719 5.15625 8.0001 5.15625C8.56052 5.15625 9.15427 4.92422 9.6126 4.59551C9.86052 4.41289 10.198 4.42793 10.4293 4.63203C10.7293 4.88769 11.1064 5.0832 11.4834 5.17344C11.8418 5.25937 12.0647 5.62891 11.9814 5.99844C11.898 6.36797 11.5397 6.59785 11.1814 6.51191C10.6709 6.38945 10.2459 6.15742 9.96885 5.9748C9.36469 6.30996 8.6876 6.53125 8.0001 6.53125C7.33552 6.53125 6.7376 6.31855 6.3251 6.1252C6.20427 6.06719 6.09385 6.01133 6.0001 5.95976C5.90635 6.01133 5.79802 6.06934 5.6751 6.1252C5.2626 6.31855 4.66469 6.53125 4.0001 6.53125C3.3126 6.53125 2.63552 6.30996 2.03135 5.97695C1.75219 6.15742 1.32927 6.3916 0.818852 6.51406C0.460519 6.6 0.102185 6.37012 0.0188521 6.00059C-0.0644812 5.63105 0.158435 5.26152 0.516769 5.17559C0.893852 5.08535 1.27094 4.88984 1.57094 4.63418C1.80219 4.43008 2.13969 4.41719 2.3876 4.59766C2.84802 4.92422 3.43969 5.15625 4.0001 5.15625C4.57302 5.15625 5.14594 4.92851 5.61469 4.59551C5.84594 4.42578 6.15427 4.42578 6.38552 4.59551Z" fill="#E8E8E8"/>
</svg>
