<svg width="10" height="10" viewBox="0 0 10 10" fill="none" xmlns="http://www.w3.org/2000/svg">
<g clip-path="url(#clip0_63_134)">
<path d="M5.625 0.625C5.625 0.970703 5.9043 1.25 6.25 1.25H6.875C7.2207 1.25 7.5 1.5293 7.5 1.875C7.5 2.2207 7.2207 2.5 6.875 2.5H0.625C0.279297 2.5 0 2.7793 0 3.125C0 3.4707 0.279297 3.75 0.625 3.75H6.875C7.91016 3.75 8.75 2.91016 8.75 1.875C8.75 0.839844 7.91016 0 6.875 0H6.25C5.9043 0 5.625 0.279297 5.625 0.625ZM6.875 7.5C6.875 7.8457 7.1543 8.125 7.5 8.125H8.125C9.16016 8.125 10 7.28516 10 6.25C10 5.21484 9.16016 4.375 8.125 4.375H0.625C0.279297 4.375 0 4.6543 0 5C0 5.3457 0.279297 5.625 0.625 5.625H8.125C8.4707 5.625 8.75 5.9043 8.75 6.25C8.75 6.5957 8.4707 6.875 8.125 6.875H7.5C7.1543 6.875 6.875 7.1543 6.875 7.5ZM2.5 10H3.125C4.16016 10 5 9.16016 5 8.125C5 7.08984 4.16016 6.25 3.125 6.25H0.625C0.279297 6.25 0 6.5293 0 6.875C0 7.2207 0.279297 7.5 0.625 7.5H3.125C3.4707 7.5 3.75 7.7793 3.75 8.125C3.75 8.4707 3.4707 8.75 3.125 8.75H2.5C2.1543 8.75 1.875 9.0293 1.875 9.375C1.875 9.7207 2.1543 10 2.5 10Z" fill="#E8E8E8"/>
</g>
<defs>
<clipPath id="clip0_63_134">
<rect width="10" height="10" fill="white"/>
</clipPath>
</defs>
</svg>
