<svg width="17" height="23" viewBox="0 0 17 23" fill="none" xmlns="http://www.w3.org/2000/svg">
<path d="M1.83281 6.76525C1.27943 6.20372 1.27943 5.29181 1.83281 4.73029C2.3862 4.16876 3.2849 4.16876 3.83828 4.73029L8.5 9.46505L13.1661 4.73478C13.7195 4.17325 14.6182 4.17325 15.1716 4.73478C15.725 5.2963 15.725 6.20822 15.1716 6.76974L10.5055 11.5L15.1672 16.2348C15.7206 16.7963 15.7206 17.7082 15.1672 18.2697C14.6138 18.8313 13.7151 18.8313 13.1617 18.2697L8.5 13.535L3.83386 18.2652C3.28047 18.8268 2.38177 18.8268 1.82839 18.2652C1.275 17.7037 1.275 16.7918 1.82839 16.2303L6.49453 11.5L1.83281 6.76525Z" fill="#E8E8E8"/>
</svg>
